<mxfile host="app.diagrams.net" modified="2020-09-01T14:18:44.308Z" agent="5.0 (Windows)" etag="O0crwIbapNtjhHIxdhF_" version="13.6.6" type="github">
  <diagram name="Page-1" id="2a216829-ef6e-dabb-86c1-c78162f3ba2b">
    <mxGraphModel dx="2844" dy="1526" grid="1" gridSize="10" guides="1" tooltips="1" connect="1" arrows="1" fold="1" page="1" pageScale="1" pageWidth="850" pageHeight="1100" background="#ffffff" math="0" shadow="0">
      <root>
        <mxCell id="0" />
        <mxCell id="1" parent="0" />
        <mxCell id="6r5c6PiM2jZmkin86mju-7" value="Editor" style="shape=umlActor;verticalLabelPosition=bottom;verticalAlign=top;html=1;outlineConnect=0;align=center;" vertex="1" parent="1">
          <mxGeometry x="260" y="240" width="30" height="60" as="geometry" />
        </mxCell>
        <mxCell id="6r5c6PiM2jZmkin86mju-8" value="" style="endArrow=classic;html=1;entryX=0;entryY=0.5;entryDx=0;entryDy=0;exitX=0.5;exitY=0.5;exitDx=0;exitDy=0;exitPerimeter=0;" edge="1" parent="1" source="6r5c6PiM2jZmkin86mju-7" target="6r5c6PiM2jZmkin86mju-10">
          <mxGeometry relative="1" as="geometry">
            <mxPoint x="300" y="280" as="sourcePoint" />
            <mxPoint x="410" y="280" as="targetPoint" />
          </mxGeometry>
        </mxCell>
        <mxCell id="6r5c6PiM2jZmkin86mju-9" value="Create" style="edgeLabel;resizable=0;html=1;align=center;verticalAlign=middle;" connectable="0" vertex="1" parent="6r5c6PiM2jZmkin86mju-8">
          <mxGeometry relative="1" as="geometry" />
        </mxCell>
        <mxCell id="6r5c6PiM2jZmkin86mju-10" value="Record" style="shape=internalStorage;whiteSpace=wrap;html=1;backgroundOutline=1;align=center;" vertex="1" parent="1">
          <mxGeometry x="460" y="250" width="100" height="80" as="geometry" />
        </mxCell>
        <mxCell id="6r5c6PiM2jZmkin86mju-17" value="Editor" style="shape=umlActor;verticalLabelPosition=bottom;verticalAlign=top;html=1;outlineConnect=0;align=center;" vertex="1" parent="1">
          <mxGeometry x="260" y="360" width="30" height="60" as="geometry" />
        </mxCell>
        <mxCell id="6r5c6PiM2jZmkin86mju-18" value="" style="endArrow=classic;html=1;entryX=0;entryY=0.75;entryDx=0;entryDy=0;exitX=0.5;exitY=0.5;exitDx=0;exitDy=0;exitPerimeter=0;" edge="1" source="6r5c6PiM2jZmkin86mju-17" parent="1" target="6r5c6PiM2jZmkin86mju-10">
          <mxGeometry relative="1" as="geometry">
            <mxPoint x="300" y="400" as="sourcePoint" />
            <mxPoint x="460" y="410.0000000000001" as="targetPoint" />
          </mxGeometry>
        </mxCell>
        <mxCell id="6r5c6PiM2jZmkin86mju-19" value="Update" style="edgeLabel;resizable=0;html=1;align=center;verticalAlign=middle;" connectable="0" vertex="1" parent="6r5c6PiM2jZmkin86mju-18">
          <mxGeometry relative="1" as="geometry" />
        </mxCell>
        <mxCell id="6r5c6PiM2jZmkin86mju-21" value="Viewer" style="shape=umlActor;verticalLabelPosition=bottom;verticalAlign=top;html=1;outlineConnect=0;align=center;" vertex="1" parent="1">
          <mxGeometry x="710" y="270" width="30" height="60" as="geometry" />
        </mxCell>
        <mxCell id="6r5c6PiM2jZmkin86mju-22" value="" style="endArrow=classic;html=1;entryX=1;entryY=0.5;entryDx=0;entryDy=0;exitX=0.5;exitY=0.5;exitDx=0;exitDy=0;exitPerimeter=0;" edge="1" parent="1" source="6r5c6PiM2jZmkin86mju-21" target="6r5c6PiM2jZmkin86mju-10">
          <mxGeometry relative="1" as="geometry">
            <mxPoint x="460" y="420.0000000000001" as="sourcePoint" />
            <mxPoint x="645" y="440.0000000000001" as="targetPoint" />
          </mxGeometry>
        </mxCell>
        <mxCell id="6r5c6PiM2jZmkin86mju-23" value="Check" style="edgeLabel;resizable=0;html=1;align=center;verticalAlign=middle;" connectable="0" vertex="1" parent="6r5c6PiM2jZmkin86mju-22">
          <mxGeometry relative="1" as="geometry" />
        </mxCell>
      </root>
    </mxGraphModel>
  </diagram>
</mxfile>
